<?xml version="1.0" standalone="no"?>
<!DOCTYPE svg PUBLIC "-//W3C//DTD SVG 20010904//EN"
 "http://www.w3.org/TR/2001/REC-SVG-20010904/DTD/svg10.dtd">
<svg version="1.0" xmlns="http://www.w3.org/2000/svg"
 width="1280.000000pt" height="1280.000000pt" viewBox="0 0 1280.000000 1280.000000"
 preserveAspectRatio="xMidYMid meet">
<metadata>
Created by potrace 1.14, written by Peter Selinger 2001-2017
</metadata>
<g transform="translate(0.000000,1280.000000) scale(0.100000,-0.100000)"
fill="#000000" stroke="none">
<path d="M6468 12795 c-2 -1 -37 -5 -79 -9 -109 -9 -154 -15 -244 -32 -44 -9
-93 -18 -110 -21 -61 -10 -263 -76 -352 -114 -82 -36 -246 -125 -276 -149 -7
-6 -35 -28 -64 -50 -197 -151 -353 -355 -463 -605 -12 -27 -26 -59 -31 -70
-35 -77 -108 -353 -124 -470 -2 -11 -6 -34 -9 -51 -3 -17 -8 -56 -11 -86 -3
-30 -8 -66 -10 -79 -27 -141 -22 -776 10 -1149 28 -324 20 -623 -21 -845 -2
-10 -6 -37 -9 -60 -20 -135 -89 -388 -147 -535 -49 -126 -143 -313 -224 -447
-43 -70 -80 -130 -83 -133 -3 -3 -22 -27 -41 -55 -19 -27 -66 -88 -105 -135
-38 -47 -82 -101 -97 -120 -347 -443 -633 -866 -852 -1260 -54 -97 -219 -433
-261 -530 -65 -149 -158 -400 -181 -485 -2 -5 -19 -65 -38 -132 -19 -67 -37
-134 -40 -150 -3 -15 -7 -39 -10 -53 -3 -13 -8 -42 -12 -64 -3 -22 -7 -43 -9
-46 -2 -4 -6 -26 -9 -51 -3 -24 -8 -54 -10 -67 -26 -129 -26 -632 0 -674 3 -4
-10 -22 -28 -40 -66 -66 -124 -137 -231 -284 -177 -241 -217 -272 -484 -368
-204 -74 -247 -93 -328 -148 -87 -59 -130 -99 -176 -163 -119 -165 -144 -319
-104 -635 3 -19 7 -45 10 -56 3 -12 8 -50 11 -85 3 -35 8 -67 11 -72 4 -7 14
-123 17 -202 2 -54 -11 -145 -25 -181 -7 -16 -13 -32 -14 -36 -2 -5 -3 -9 -5
-10 -1 -2 -3 -10 -6 -18 -73 -271 -76 -286 -79 -410 -3 -97 0 -140 14 -190 51
-189 172 -304 396 -378 67 -22 112 -35 135 -37 8 -1 40 -7 70 -13 30 -6 71
-14 90 -16 19 -3 69 -9 110 -15 42 -5 105 -13 140 -16 36 -4 76 -9 90 -11 14
-2 52 -7 85 -9 33 -3 70 -8 82 -10 12 -3 46 -8 75 -11 29 -3 60 -7 68 -9 8 -3
33 -7 55 -11 35 -5 121 -22 205 -40 118 -25 287 -87 433 -160 184 -92 466
-202 565 -220 12 -3 59 -13 105 -23 221 -52 476 -59 677 -19 295 58 519 211
655 449 36 64 38 66 79 66 58 1 159 11 177 17 8 3 32 7 54 10 22 2 99 16 170
29 72 14 147 28 169 31 21 4 41 8 45 10 3 2 33 7 66 11 32 3 62 8 65 10 3 2
30 6 60 9 30 4 66 9 80 11 23 4 96 11 205 21 64 5 306 4 350 -1 22 -3 58 -7
80 -9 35 -4 153 -20 225 -31 14 -2 48 -7 75 -11 28 -3 58 -8 69 -10 10 -2 44
-6 75 -9 31 -4 67 -8 81 -10 74 -11 192 -18 334 -19 l159 -2 22 -66 c34 -102
117 -244 190 -326 54 -62 70 -77 125 -122 186 -153 372 -221 621 -225 75 -2
158 1 185 6 27 5 60 11 74 14 97 15 238 63 368 125 234 112 469 296 662 520
225 261 384 371 928 643 172 86 345 177 383 202 38 25 71 45 73 45 8 0 61 47
121 107 103 104 146 207 141 340 -5 113 -28 190 -89 303 -29 53 -104 170 -116
180 -4 3 -25 30 -47 60 -23 30 -52 67 -65 81 -81 87 -136 175 -164 261 -4 13
-9 28 -10 33 -6 16 -83 325 -96 380 -40 180 -126 349 -223 439 -35 32 -160
116 -173 116 -5 0 -17 6 -26 13 -16 11 -15 16 3 75 11 35 22 73 24 85 3 12 7
31 10 42 60 257 71 354 71 625 0 190 -6 310 -21 398 -2 15 -12 65 -20 112 -9
47 -17 94 -18 105 -2 11 -6 29 -9 40 -3 11 -9 35 -12 54 -3 19 -10 42 -16 52
-5 10 -8 22 -7 26 4 19 -74 259 -135 413 -23 58 -42 107 -42 110 -5 21 -185
388 -234 478 -72 130 -172 292 -286 462 -113 170 -330 465 -359 489 -9 7 -16
19 -16 26 0 8 -3 15 -8 17 -19 8 -419 508 -521 651 -166 233 -299 463 -366
632 -15 39 -31 79 -35 90 -29 71 -66 213 -85 325 -5 25 -10 56 -13 70 -3 14
-6 255 -8 535 -3 593 -13 878 -39 1065 -2 19 -7 60 -11 90 -3 30 -9 75 -14
100 -4 25 -8 52 -8 60 0 13 -54 266 -66 310 -21 80 -30 110 -56 189 -40 122
-103 265 -163 374 -43 78 -109 180 -127 197 -3 3 -18 23 -34 45 -58 80 -228
236 -334 305 -58 39 -110 70 -115 70 -6 0 -18 6 -26 14 -55 48 -395 151 -586
177 -78 10 -518 22 -527 14z m645 -1793 c361 -131 562 -631 432 -1076 -14 -48
-39 -114 -54 -146 -36 -73 -93 -160 -104 -160 -5 0 -32 11 -60 24 -29 13 -98
40 -155 61 -101 37 -102 38 -87 59 84 116 120 327 81 489 -56 237 -230 351
-379 249 -45 -32 -87 -76 -87 -92 0 -6 -3 -10 -8 -10 -7 0 -15 -16 -46 -92
-27 -64 -42 -161 -39 -251 2 -48 0 -87 -2 -87 -3 0 -22 8 -43 19 -20 10 -80
33 -132 51 -52 18 -99 36 -103 40 -11 10 -13 186 -3 273 14 131 73 290 149
401 87 129 245 244 355 261 13 2 26 6 29 8 3 3 48 4 101 3 68 -2 115 -9 155
-24z m-1646 -111 c50 -14 136 -70 182 -119 98 -106 168 -266 197 -452 8 -50
13 -231 7 -246 -2 -7 -19 -16 -36 -20 -38 -8 -104 -37 -170 -76 -26 -15 -49
-28 -50 -28 -1 0 -2 29 -1 66 5 188 -87 384 -195 414 -229 63 -313 -461 -108
-677 17 -18 29 -35 26 -37 -2 -2 -31 -25 -64 -50 -33 -25 -65 -50 -71 -55 -18
-15 -81 58 -136 159 -27 48 -68 163 -88 245 -16 65 -22 316 -9 380 6 28 13 61
15 75 30 149 126 307 232 380 74 50 176 66 269 41z m2173 -2161 c49 -173 226
-708 260 -785 12 -26 81 -207 84 -220 2 -5 8 -23 15 -40 7 -16 24 -59 38 -95
14 -36 34 -84 44 -107 10 -23 19 -45 19 -48 0 -3 9 -25 19 -49 11 -23 29 -65
39 -92 11 -27 32 -76 48 -109 27 -60 51 -113 94 -215 13 -30 103 -212 200
-405 195 -388 242 -487 307 -649 24 -61 48 -120 53 -131 39 -82 194 -600 215
-719 25 -134 29 -146 49 -147 53 -2 95 -6 146 -14 114 -18 111 -19 137 63 12
40 25 82 27 95 36 177 37 188 40 339 3 149 -14 308 -49 451 -14 56 -28 113
-31 126 -14 65 -94 262 -160 396 -118 242 -265 454 -437 630 -63 65 -107 122
-107 141 0 2 9 8 20 14 17 9 32 -2 120 -90 302 -304 569 -732 711 -1140 11
-30 21 -62 23 -71 3 -9 13 -47 25 -85 32 -111 57 -242 71 -374 8 -76 5 -364
-4 -410 -2 -14 -7 -42 -10 -62 -3 -21 -10 -57 -15 -80 -10 -43 -7 -58 11 -58
5 0 59 -25 119 -55 377 -188 567 -350 629 -535 19 -54 21 -79 17 -150 -8 -117
-9 -120 -69 -120 l-49 0 5 33 c2 17 5 34 6 37 2 3 2 30 0 60 -5 136 -125 277
-340 399 -76 44 -245 126 -311 151 -30 11 -63 25 -74 30 -20 9 -131 41 -190
55 -114 26 -263 25 -354 -5 -91 -29 -169 -97 -211 -183 -16 -34 -31 -73 -34
-87 -2 -14 -8 -43 -14 -65 -5 -22 -9 -43 -10 -47 -1 -5 -2 -15 -2 -23 0 -9
-12 -20 -27 -26 -47 -17 -133 -64 -133 -71 0 -5 -6 -8 -13 -8 -20 0 -138 -116
-183 -180 -95 -132 -187 -375 -209 -551 -3 -23 -10 -61 -14 -83 -5 -23 -12
-70 -16 -106 -3 -36 -9 -83 -12 -105 -3 -22 -7 -62 -9 -90 -1 -27 -5 -79 -8
-115 -2 -36 -7 -112 -11 -170 -11 -187 -14 -234 -19 -276 -7 -56 -53 -263 -78
-348 -11 -38 -21 -76 -23 -85 -5 -18 -27 -94 -47 -161 -12 -39 -24 -52 -88
-97 -41 -29 -86 -59 -100 -66 -14 -8 -68 -39 -120 -69 -180 -102 -393 -194
-596 -257 -96 -30 -118 -36 -174 -47 -14 -3 -33 -7 -42 -10 -20 -6 -51 -12
-98 -19 -20 -3 -45 -7 -56 -9 -94 -18 -200 -26 -374 -26 -148 0 -176 1 -280
16 -25 3 -56 8 -70 10 -22 3 -83 14 -145 28 -188 40 -433 142 -643 268 -67 40
-90 61 -124 111 -41 62 -237 328 -248 337 -10 8 -70 93 -67 96 1 1 30 4 65 7
174 17 285 87 337 213 21 51 24 71 21 149 -5 103 -28 181 -89 299 -102 198
-313 436 -557 631 -41 33 -77 62 -80 65 -3 3 -39 30 -80 60 -41 30 -77 57 -80
60 -3 3 -14 11 -25 18 -44 28 -81 52 -103 69 -13 9 -32 22 -42 27 -118 66
-299 199 -388 286 -271 265 -393 578 -386 985 2 83 5 161 8 174 3 13 8 47 11
76 4 29 15 91 26 137 10 45 21 94 24 108 46 211 220 628 395 945 18 33 43 79
56 102 21 38 51 90 81 138 20 32 76 128 88 150 26 46 40 65 54 70 10 4 12 -1
8 -25 -7 -30 -74 -196 -89 -216 -15 -21 -225 -435 -263 -519 -8 -16 -29 -70
-48 -120 -19 -49 -38 -99 -42 -110 -5 -11 -9 -24 -10 -30 -1 -5 -10 -32 -20
-60 -14 -42 -60 -221 -70 -274 -3 -20 -14 -97 -25 -176 -8 -62 -6 -384 3 -420
2 -11 8 -40 13 -65 4 -25 8 -47 9 -50 1 -3 5 -18 9 -35 4 -16 15 -52 24 -80 9
-27 17 -55 18 -61 7 -43 180 -355 185 -334 1 8 6 66 13 176 4 56 8 111 10 121
4 21 16 110 21 153 5 43 35 211 52 284 8 37 16 73 17 80 1 6 5 20 9 31 3 11 8
31 11 45 6 32 45 170 53 190 3 8 7 17 8 20 29 108 122 360 173 470 17 36 66
144 110 240 44 96 97 211 117 255 202 434 428 974 473 1125 6 19 20 62 32 95
58 157 154 504 176 630 2 11 11 63 20 115 18 105 18 100 29 223 4 48 9 87 11
87 2 0 50 -30 106 -67 130 -85 162 -110 316 -250 20 -18 54 -45 76 -60 23 -16
43 -31 46 -34 16 -21 184 -93 236 -102 16 -3 47 -9 69 -13 75 -14 255 -9 351
10 55 11 206 68 267 100 38 20 132 76 210 124 144 89 166 100 337 168 170 67
271 133 385 249 l80 81 11 -35 c7 -20 26 -88 44 -151z m-4792 -4704 c-37 -13
-86 -38 -110 -55 -23 -17 -46 -31 -52 -31 -18 0 58 52 119 81 33 15 71 28 85
28 14 0 -4 -10 -42 -23z m422 -52 c0 -2 -9 0 -20 6 -11 6 -20 13 -20 16 0 2 9
0 20 -6 11 -6 20 -13 20 -16z m200 -157 c44 -44 78 -82 76 -84 -2 -2 -26 19
-52 48 -66 70 -110 111 -161 148 -24 17 -43 33 -43 36 0 13 109 -76 180 -148z
m132 -152 c11 -21 8 -18 -32 30 -24 29 -24 29 -2 10 13 -11 28 -29 34 -40z
m-1942 -529 c0 -3 -26 -20 -58 -40 -32 -19 -66 -44 -77 -56 -10 -11 -22 -20
-27 -20 -14 0 51 54 107 88 53 33 55 34 55 28z m-175 -136 c-3 -5 -12 -10 -18
-10 -7 0 -6 4 3 10 19 12 23 12 15 0z m3618 -1750 c3 -11 1 -18 -4 -14 -5 3
-9 12 -9 20 0 20 7 17 13 -6z m11 -46 c3 -8 2 -12 -4 -9 -6 3 -10 10 -10 16 0
14 7 11 14 -7z m-3783 -51 c13 -16 12 -17 -3 -4 -17 13 -22 21 -14 21 2 0 10
-8 17 -17z m20 -40 c13 -16 12 -17 -3 -4 -17 13 -22 21 -14 21 2 0 10 -8 17
-17z m287 -161 c50 -14 92 -28 92 -32 0 -7 -68 6 -105 20 -11 5 -45 16 -75 26
-30 10 -59 22 -64 26 -5 4 6 3 25 -3 19 -6 76 -22 127 -37z m132 -43 c0 -4 -7
-6 -15 -3 -8 4 -15 10 -15 15 0 4 7 6 15 3 8 -4 15 -10 15 -15z m99 -14 c3 -3
-7 -4 -23 -1 -16 3 -31 8 -35 11 -3 3 7 4 23 1 16 -3 31 -8 35 -11z m3148
-222 c-40 -65 -102 -134 -162 -179 -51 -39 -95 -66 -95 -59 0 2 17 15 38 29
78 49 215 200 236 260 3 10 9 16 12 13 4 -3 -10 -32 -29 -64z m-560 -339 c-3
-3 -12 -4 -19 -1 -8 3 -5 6 6 6 11 1 17 -2 13 -5z"/>
</g>
</svg>
